<?xml version="1.0" encoding="UTF-8" standalone="no"?>
<!-- Generator: Adobe Illustrator 23.0.0, SVG Export Plug-In . SVG Version: 6.00 Build 0)  -->

<svg
   xmlns:dc="http://purl.org/dc/elements/1.1/"
   xmlns:cc="http://creativecommons.org/ns#"
   xmlns:rdf="http://www.w3.org/1999/02/22-rdf-syntax-ns#"
   xmlns:svg="http://www.w3.org/2000/svg"
   xmlns="http://www.w3.org/2000/svg"
   xmlns:sodipodi="http://sodipodi.sourceforge.net/DTD/sodipodi-0.dtd"
   xmlns:inkscape="http://www.inkscape.org/namespaces/inkscape"
   version="1.1"
   id="Layer_1"
   x="0px"
   y="0px"
   viewBox="0 0 100 100"
   xml:space="preserve"
   sodipodi:docname="DuckDuckGo Logo- Dax Solo- Mono.svg"
   width="100"
   height="100"
   inkscape:version="0.92.4 5da689c313, 2019-01-14"><metadata
   id="metadata48"><rdf:RDF><cc:Work
       rdf:about=""><dc:format>image/svg+xml</dc:format><dc:type
         rdf:resource="http://purl.org/dc/dcmitype/StillImage" /><dc:title></dc:title></cc:Work></rdf:RDF></metadata><defs
   id="defs46">
	
	

		
		
		
		
		
		
	
			
			
		
			
			
			
		</defs><sodipodi:namedview
   pagecolor="#ffffff"
   bordercolor="#666666"
   borderopacity="1"
   objecttolerance="10"
   gridtolerance="10"
   guidetolerance="10"
   inkscape:pageopacity="0"
   inkscape:pageshadow="2"
   inkscape:window-width="1280"
   inkscape:window-height="770"
   id="namedview44"
   showgrid="false"
   inkscape:pagecheckerboard="true"
   inkscape:zoom="3.7165354"
   inkscape:cx="21.228901"
   inkscape:cy="55.301882"
   inkscape:window-x="0"
   inkscape:window-y="30"
   inkscape:window-maximized="1"
   inkscape:current-layer="Layer_1" />
<style
   type="text/css"
   id="style2">
	.st0{fill:#DE5833;}
	.st1{fill:#FFFFFF;}
	.st2{fill-rule:evenodd;clip-rule:evenodd;fill:#FED30A;}
	.st3{fill:#2D4F8D;}
	.st4{fill:#D5D7D8;}
	.st5{fill:#67BD47;}
	.st6{fill:#43A347;}
	.st7{fill:#4C4C4C;}
</style>
<path
   style="fill:#000000;stroke-width:0.90744746"
   d="M 49.999999,0 C 43.194144,0 36.660522,1.360107 30.489879,3.900961 24.500726,6.441814 19.146786,10.072312 14.609549,14.609549 9.9815674,19.237531 6.4418144,24.591471 3.9009614,30.48988 1.2693626,36.660522 0,43.194144 0,50 c 0,6.715111 1.3601073,13.339477 3.9009614,19.51012 2.540853,5.989153 6.1713506,11.343093 10.7085876,15.88033 4.627982,4.62798 9.981922,8.16773 15.88033,10.70859 6.170643,2.6316 12.704265,3.90096 19.51012,3.90096 6.805857,0 13.339478,-1.36011 19.51012,-3.90096 5.989154,-2.54086 11.343094,-6.17135 15.880335,-10.70859 4.627982,-4.627982 8.167725,-9.981922 10.708585,-15.88033 2.6316,-6.170643 3.90096,-12.704264 3.90096,-19.51012 0,-6.805856 -1.26936,-13.339478 -3.90096,-19.51012 C 93.558179,24.500727 89.92769,19.146787 85.390454,14.609549 80.762468,9.981567 75.408529,6.441814 69.510119,3.900961 63.339477,1.269363 56.805856,0 49.999999,0 Z m -0.09039,3.62979 c 25.590019,0 46.27982,20.689802 46.27982,46.27982 0,21.869483 -15.063982,40.10882 -35.30006,45.00904 -0.81327,-1.3724 -2.005312,-3.4783 -3.287725,-5.96044 0.213689,-0.18049 0.302981,-0.43731 0.384602,-0.84542 0.05678,-0.0309 0.130787,-0.0583 0.180781,-0.0904 0.181489,-0.0907 0.272589,-0.27223 0.363333,-0.45372 2.813088,1.08893 8.892276,3.26645 10.162702,2.81273 1.633406,-0.45372 1.271137,-14.155825 -0.634503,-14.609549 -1.54266,-0.362988 -7.532523,3.90166 -9.801141,5.535066 -0.09075,-0.453724 -0.180427,-0.816348 -0.271171,-0.997838 -0.165991,-0.553306 -2.388722,-0.560599 -4.407856,-0.157741 -1.820043,-4.671364 -3.215057,-9.656296 -3.215057,-13.998085 0,-1.510923 0.06732,-2.83457 0.189643,-4.005529 4.546504,3.109289 12.833383,4.912976 18.322639,4.912976 7.894793,0 14.790685,-4.90057 12.885045,-6.261741 -2.177873,-1.542661 -9.347063,1.724504 -16.697388,1.724504 -4.900215,0 -9.345644,-1.997802 -9.345644,-4.175676 0,-2.540852 1.450498,-3.174648 7.62114,-2.63018 6.442877,0.635214 23.139913,-6.897309 23.139913,-8.893693 0,-1.361171 -1.904227,-2.541208 -4.898802,-2.631953 -2.136945,-0.06678 -9.08996,2.811927 -15.94059,4.338733 0.269283,-1.162043 0.421821,-2.606771 0.421821,-4.429123 0,-4.446492 -2.176456,-20.053879 -15.788167,-23.32069 -3.182576,-4.214763 -10.450567,-8.258522 -21.863812,-7.201092 -0.0806,-0.04136 -0.206385,-0.114712 -0.27826,-0.15065 -0.635214,0.09075 -1.179682,0.09181 -1.814895,0.182553 0,0 0.333952,0.118803 0.437771,0.152422 -0.08724,0.01149 -0.169297,0.01628 -0.256991,0.02836 0,0 2.087484,0.635213 4.446847,1.814895 0,0 -3.03424,0.427302 -4.237708,2.272164 -0.04877,-1.09e-4 -0.165486,-0.0035 -0.209139,-0.0035 -0.18149,0.362979 -0.363333,0.817057 -0.363333,1.270781 -0.0019,0.0019 0.114397,-0.0014 0.12052,0 -0.0074,0.06143 -0.02462,0.117283 -0.02835,0.180781 0,0 8.983729,-0.453015 14.065435,1.18039 -5.013894,0.660746 -8.98608,2.161679 -11.81454,4.537237 0.244155,-0.276748 0.488407,-0.554372 0.742618,-0.817057 -4.355748,3.176066 -6.351069,8.076282 -5.715855,14.972883 1.54266,15.88033 8.257062,44.284502 10.616426,54.175672 l 0.07444,0.0248 c 0.0037,0.0158 0.01222,0.0499 0.01595,0.0656 C 16.424098,87.02424 3.6297994,69.964227 3.6297994,49.909638 c 0,-25.499273 20.6898016,-46.27982 46.2798186,-46.27982 z m 7.612279,84.70278 c -0.06524,0.0276 -0.123359,0.0572 -0.193187,0.0833 -0.0026,-0.005 -0.0045,-0.0108 -0.0071,-0.016 0.06514,-0.0229 0.138938,-0.0435 0.200278,-0.0673 z"
   id="path6"
   inkscape:connector-curvature="0" />
</svg>